<?xml version="1.0" encoding="utf-8"?>
<!-- Generator: Adobe Illustrator 24.3.0, SVG Export Plug-In . SVG Version: 6.00 Build 0)  -->
<svg version="1.1" id="레이어_1" xmlns="http://www.w3.org/2000/svg" xmlns:xlink="http://www.w3.org/1999/xlink" x="0px"
	 y="0px" viewBox="0 0 200 200" style="enable-background:new 0 0 200 200;" xml:space="preserve">
<g>
	<g>
		<path d="M30.66,199.77c-2.54,0-4.59-2.05-4.59-4.59V58.43c0-2.54,2.05-4.59,4.59-4.59s4.59,2.05,4.59,4.59v136.76
			C35.25,197.72,33.21,199.77,30.66,199.77z"/>
		<path d="M172.58,199.77c-2.54,0-4.59-2.05-4.59-4.59V58.43c0-2.54,2.05-4.59,4.59-4.59s4.59,2.05,4.59,4.59v136.76
			C177.17,197.72,175.13,199.77,172.58,199.77z"/>
		<path d="M56.63,199.77h-69.46c-2.54,0-4.59-2.05-4.59-4.59s2.05-4.59,4.59-4.59h69.46h98.11h61.35c2.54,0,4.59,2.05,4.59,4.59
			s-2.05,4.59-4.59,4.59h-61.35H56.63z"/>
	</g>
	<path d="M-1.26,85.3c-1.4,0-2.78-0.63-3.69-1.85c-1.52-2.04-1.09-4.92,0.95-6.42L98.75,0.69c2.01-1.51,4.9-1.12,6.42,0.95
		c1.52,2.04,1.09,4.92-0.95,6.42L1.48,84.4C0.66,85.01-0.3,85.3-1.26,85.3z"/>
	<path d="M204.74,85.47c-0.95,0-1.91-0.29-2.74-0.89L98.75,8.07c-2.04-1.52-2.47-4.39-0.96-6.43c1.52-2.03,4.39-2.46,6.43-0.96
		l103.25,76.5c2.04,1.52,2.47,4.39,0.96,6.43C207.53,84.82,206.14,85.47,204.74,85.47z"/>
	<path d="M161.49,53.56c-2.54,0-4.59-2.05-4.59-4.59V13.02c0-2.54,2.05-4.59,4.59-4.59c2.54,0,4.59,2.05,4.59,4.59v35.94
		C166.08,51.51,164.03,53.56,161.49,53.56z"/>
	<path d="M187.71,52.48c-2.54,0-4.59-2.05-4.59-4.59V13.02c0-2.54,2.05-4.59,4.59-4.59s4.59,2.05,4.59,4.59v34.86
		C192.3,50.43,190.25,52.48,187.71,52.48z"/>
	<path d="M194.73,17.61h-40c-2.54,0-4.59-2.05-4.59-4.59s2.05-4.59,4.59-4.59h40c2.54,0,4.59,2.05,4.59,4.59
		S197.28,17.61,194.73,17.61z"/>
</g>
</svg>
