<?xml version="1.0" encoding="utf-8"?>
<!-- Generator: Adobe Illustrator 24.3.0, SVG Export Plug-In . SVG Version: 6.00 Build 0)  -->
<svg version="1.1" id="레이어_1" xmlns="http://www.w3.org/2000/svg" xmlns:xlink="http://www.w3.org/1999/xlink" x="0px"
	 y="0px" viewBox="0 0 200 200" style="enable-background:new 0 0 200 200;" xml:space="preserve">
<style type="text/css">
	.st0{fill:#FFC900;}
	.st1{fill:#FFFFFF;}
</style>
<ellipse class="st0" cx="99.92" cy="100.46" rx="100" ry="99.79"/>
<g>
	<path class="st1" d="M167.89,84.58c0-3.01-2.34-5.49-5.3-5.71c0.24-0.5,0.38-1.04,0.38-1.63c0-2.1-1.71-3.81-3.81-3.81
		c-0.26,0-0.52,0.03-0.77,0.08C148.09,51.48,125.72,36.2,99.75,36.2c-15.41,0-29.56,5.39-40.67,14.37
		c-0.39-0.14-0.81-0.23-1.24-0.23c-1.98,0-3.6,1.53-3.77,3.47c-0.92-0.62-2.02-0.99-3.21-0.99c-3.15,0-5.72,2.57-5.72,5.72
		c0,0.67,0.12,1.3,0.33,1.9c-2.13,0.34-3.76,2.17-3.76,4.39c0,1.54,0.78,2.9,1.97,3.7c-5.5,9.49-8.65,20.5-8.65,32.25
		c0,13.35,4.08,25.74,11.03,36.03c-0.78,0.7-1.28,1.7-1.28,2.82c0,2.1,1.71,3.81,3.81,3.81c0.11,0,0.21-0.02,0.32-0.03
		c-0.11,0.35-0.18,0.72-0.18,1.1c0,2.1,1.71,3.81,3.81,3.81c0.94,0,1.8-0.36,2.46-0.93c11.63,11.12,27.39,17.97,44.77,17.97
		c34.02,0,61.89-26.2,64.5-59.47c1.03-0.68,1.71-1.85,1.71-3.17c0-1.23-0.6-2.32-1.51-3.01c-0.06-3.26-0.36-6.46-0.89-9.59
		C166.05,89.5,167.89,87.25,167.89,84.58z M50.85,55.47c1.7,0,3.08,1.38,3.08,3.08c0,1.7-1.38,3.08-3.08,3.08
		c-1.7,0-3.08-1.38-3.08-3.08C47.77,56.86,49.15,55.47,50.85,55.47z M51.84,131.58c0,1.37-1.11,2.48-2.48,2.48
		c-1.36,0-2.48-1.11-2.48-2.48c0-1.37,1.11-2.48,2.48-2.48C50.73,129.11,51.84,130.22,51.84,131.58z M43.76,64.84
		c0-1.32,1.08-2.4,2.4-2.4c0.2,0,0.39,0.03,0.58,0.08c0.43,0.45,0.93,0.82,1.48,1.11c0.21,0.36,0.34,0.77,0.34,1.21
		c0,1.32-1.08,2.4-2.4,2.4C44.84,67.25,43.76,66.17,43.76,64.84z M48.58,141.7c-1.13,0-2.05-0.92-2.05-2.05
		c0-1.13,0.92-2.05,2.05-2.05c1.13,0,2.05,0.92,2.05,2.05C50.63,140.78,49.71,141.7,48.58,141.7z M52.52,146.58
		c-1.13,0-2.05-0.92-2.05-2.05c0-1.13,0.92-2.05,2.05-2.05c1.13,0,2.05,0.92,2.05,2.05C54.57,145.66,53.65,146.58,52.52,146.58z
		 M57.83,56.21c-1.13,0-2.05-0.92-2.05-2.05c0-1.13,0.92-2.05,2.05-2.05c1.13,0,2.05,0.92,2.05,2.05
		C59.88,55.29,58.96,56.21,57.83,56.21z M157.11,77.24c0-1.13,0.92-2.05,2.05-2.05c1.13,0,2.05,0.92,2.05,2.05
		c0,1.13-0.92,2.05-2.05,2.05C158.03,79.29,157.11,78.37,157.11,77.24z M164.2,102.73c0,1.13-0.92,2.05-2.05,2.05
		c-1.13,0-2.05-0.92-2.05-2.05s0.92-2.05,2.05-2.05C163.28,100.68,164.2,101.6,164.2,102.73z M162.15,87.67
		c-1.7,0-3.09-1.39-3.09-3.09c0-1.7,1.38-3.09,3.09-3.09s3.09,1.38,3.09,3.09C165.24,86.28,163.85,87.67,162.15,87.67z"/>
	<ellipse class="st0" cx="96.8" cy="69.72" rx="16.84" ry="16.8"/>
	<ellipse class="st0" cx="131.85" cy="122.46" rx="16.84" ry="16.8"/>
</g>
<g>
	<path d="M41.72,150.46C15.45,120.39,16.76,73.98,45.25,45.5c24.69-24.69,62.97-29.66,93.09-12.09c1.23,0.72,2.81,0.31,3.54-0.93
		c0.72-1.23,0.3-2.82-0.93-3.54c-32.15-18.76-73-13.45-99.36,12.9C26.34,57.09,17.8,77.36,17.55,98.92
		c-0.24,20.46,7.02,39.92,20.46,55.16c-8.7,11.99,13.6,23.5,20.25,16.85C64.86,164.33,53.6,142.34,41.72,150.46z M42.98,155.64
		c-1.3,1.3-2.44,2.67-3.42,4.07c-0.32-2.26,0.19-4.38,1.65-5.84c1.46-1.46,3.57-1.97,5.84-1.65
		C45.66,153.2,44.29,154.34,42.98,155.64z"/>
	<g>
		<path d="M148.15,94.78c-0.04-0.01-0.07-0.03-0.11-0.04c-1.29-0.4-2.59,0.14-2.93,1.29c-1.67,7.39-4.74,10.83-9.65,10.85l-0.24,0
			c-3.45-0.09-5.7-1.81-6.33-4.83c-0.21-1.08-0.29-2.05-0.27-3.23c4.65-1.2,16.49-5.08,14.5-13.17c-0.82-3.34-3.97-5.5-8.03-5.48
			c-2.58,0.01-4.95,1.23-6.88,3.53c-2.7,3.23-4.41,8.47-4.59,13.49c-0.47,2.97-2.29,5.77-4.91,5.78c-0.75,0-1.45-0.18-2.12-0.56
			c1.27-3.55,4.91-15.36,5.95-19.06c0.01-0.04,0.02-0.09,0.03-0.13c0.03-0.23,0.06-0.54-0.03-0.9c-0.2-0.83-0.91-1.63-1.8-2.04
			c-0.06-0.03-0.12-0.05-0.18-0.07c-0.26-0.07-0.59-0.17-0.95-0.17c-0.92,0-1.71,0.51-2,1.29c-0.01,0.03-0.02,0.06-0.03,0.09
			c-0.39,1.59-2.79,9.57-4.18,14.01c-0.57-0.48-1.28-0.75-1.98-0.75c-1.1,0-1.9,0.72-1.99,1.79c-0.13,2.04,0.39,4.26,1.4,6.05
			c-1.11,2.71-2.69,4.44-4.07,4.45c-0.59,0-1.06,0-1.48-1.67c-0.54-2.21,0.28-8.03,2.37-22.11c0.12-0.67-0.14-1.43-0.68-2.02
			c-0.59-0.65-1.43-1.02-2.29-1.02c-1.07,0-1.88,0.62-2.03,1.54c-0.4,2.93-0.79,5.56-1.15,7.93c-0.35,2.35-0.66,4.41-0.9,6.24
			c-0.04,0.11-0.08,0.22-0.1,0.33c-1.3,6.13-3.38,6.85-4.83,6.85c-0.93,0-1.7-0.17-2.33-0.53c1.76-4.86,2.33-10.79,1.38-14.66
			c-1.11-4.52-4.76-7.41-9.54-7.52c-2.68,0.01-6.36,1.24-8.72,7.05c-2.5,5.99-3.06,11.59-1.7,17.13c1.15,4.7,4.12,7.17,8.57,7.16h0
			c3-0.01,5.98-1.98,8.09-5.31c1.66,0.86,3.44,1.3,5.21,1.3c1.56-0.01,2.92-0.4,4.09-1.17c1.15,3.22,3.69,5.11,6.99,5.1h0
			c3.24-0.01,5.02-1.77,7.06-5.25c1.45,0.81,3.12,1.25,4.83,1.24c2.24-0.01,4.11-0.89,5.56-2.25c2.06,3.84,6.05,6.17,10.89,6.16h0
			c7.25-0.02,11.68-4.38,13.97-13.7c0.01-0.04,0.03-0.16,0.03-0.19c0.02-0.17,0.06-0.42-0.02-0.75
			C149.85,95.98,149.1,95.17,148.15,94.78z M135.91,83.78l0.16,1.01c1.94-0.01,2.09,0.61,2.2,1.05c0.65,2.64-2.47,5.3-8.82,7.57
			c1.45-5.43,3.87-8.62,6.62-8.63L135.91,83.78L135.91,83.78z M86.16,96.56c-0.1,1.65,0.41,4.21,1.43,6
			c-1.56,2.82-3.47,4.49-5.18,4.5c-0.6,0-2.01,0.01-2.71-2.85c-1.07-4.35-0.52-9.37,1.6-14.51c0.68-1.77,2.21-4.74,4.81-4.75
			c1.92-0.01,3.29,1.1,3.76,3.03c0.48,1.96,0.48,4.63,0.05,7.32c-0.51-0.35-1.1-0.54-1.7-0.54C86.98,94.77,86.13,95.54,86.16,96.56z
			"/>
	</g>
	<path d="M126.02,131.52c-0.17-0.51-0.62-0.94-1.23-1.18l-0.1-0.03c-0.17-0.04-0.36-0.08-0.57-0.08c-0.63,0-1.16,0.34-1.4,0.98
		c-0.93,3.84-2,6.07-4.71,6.06c-0.43,0-1.01-0.17-1.28-0.95c-0.3-0.87-0.25-2.48,0.18-6.39c0.14-1.26,0.26-2.28,0.36-3.09
		c0.1-0.82,0.17-1.42,0.21-1.87l3.13,0c0.55,0,0.99-0.22,1.23-0.63c0.19-0.34,0.23-0.76,0.09-1.17c-0.25-0.74-1.07-1.29-1.9-1.29
		l-2.2,0c0.28-2.22,0.38-3.28,0.38-3.82c0.06-0.39-0.05-0.79-0.31-1.14c-0.38-0.51-1.03-0.83-1.67-0.83c-0.79,0-1.34,0.46-1.4,1.22
		c-0.01,0.26-0.33,3.33-0.47,4.57l-2.93,0c-0.54,0-0.98,0.24-1.22,0.65c-0.2,0.34-0.23,0.76-0.09,1.16c0.26,0.76,1.04,1.29,1.9,1.29
		l2.03,0l-0.47,4.1c-0.1,0.65-0.19,1.32-0.26,2c-0.02,0.04-0.03,0.08-0.05,0.13l-0.03,0.19c-0.57,2.49-1.35,5.89-3.65,5.89
		c-0.66,0-0.94-0.22-1.19-0.95c-0.41-1.2-0.09-3.9,0.24-6.74l0.77-5.8c0.07-0.39-0.03-0.82-0.28-1.17c-0.37-0.52-1-0.84-1.64-0.84
		c-0.76,0-1.31,0.43-1.4,1.09l-0.05,0.32c0,0.02,0,0.03-0.01,0.05c-1.2-0.85-2.64-1.27-4.3-1.28c-4.47,0-6.67,4.88-6.84,9.46
		c-0.9,4.06-2.79,5.87-6.09,5.87l-0.16,0c-2.39-0.06-4.05-1.07-4.55-2.75c-0.14-0.5-0.22-0.95-0.25-1.47
		c3.1-0.68,7.9-2.17,9.24-5.02c0.43-0.91,0.48-1.91,0.14-2.91c-0.67-1.96-2.76-3.18-5.45-3.18c-2.26,0-4.18,1.16-5.55,3.36
		c-1.65,2.66-2.22,6.6-1.38,9.62c1.02,3.31,4.29,5.44,8.32,5.45h0c3.04,0,5.32-1.01,6.92-3.09c1.11,1.93,2.99,3.09,5.14,3.09
		c1.84,0,3.37-0.78,4.56-2.32c0.94,1.47,2.51,2.32,4.41,2.32c1.7,0,3.09-0.69,4.14-2.05c0.98,1.29,2.53,2.06,4.27,2.06
		c4.52,0,6.25-3.2,7.46-8.01l0.02-0.14C126.1,132.06,126.12,131.81,126.02,131.52z M98.62,135.22c-0.25-0.81-0.37-1.91-0.33-3.11
		l0-0.09c0.14-3.34,1.46-6.95,4.02-6.99c1.31,0,2.48,0.73,3.02,1.88l-0.28,2c-0.71,4.4-1.58,8.34-4.48,8.34
		C99.93,137.26,99.23,137.01,98.62,135.22z M90,125.62c0.09,0.26,0.08,0.49-0.03,0.75c-0.29,0.65-1.42,1.88-5.7,3.17
		c0.58-2.08,1.76-4.51,4.08-4.51C89.8,125.02,89.95,125.47,90,125.62z M89.12,139.55L89.12,139.55L89.12,139.55L89.12,139.55z"/>
	<path d="M85.04,120.43c-7.02,0-13.99-3.91-20.86-8.33c-1.71,2.43-3.95,4.19-6.89,4.55c-7.18,0.89-9.93-2.73-10.77-4.32
		c-1.58-2.98-0.91-6.71,1.61-8.87c2.87-2.46,7.16-2.26,11.47,0.53c0.9,0.59,1.8,1.17,2.68,1.76c1.09-2.72,1.93-6.22,2.45-10.35
		c0.82-6.49,1.23-10.16,1.56-13.12c0.13-1.14,0.24-2.15,0.36-3.14c-1.18,0.2-2.35,0.39-3.51,0.58c-8.07,1.3-15.04,2.43-15.79,7.28
		c-0.28,1.78,0.11,3.29,1.14,4.48c1.04,1.21,2.7,2,4.34,2.06c1.26,0.05,2.33,1.09,2.4,2.31c0.07,1.23-0.89,2.18-2.15,2.13
		c-3.01-0.12-5.99-1.56-7.95-3.84c-1.94-2.25-2.75-5.17-2.28-8.22c1.19-7.7,9.91-9.11,19.14-10.6c1.74-0.28,3.52-0.57,5.27-0.9
		c0.08-0.55,0.16-1.13,0.25-1.75c0.89-6.11,4.36-8.05,7.3-7.84c2.83,0.21,5.34,2.37,5.83,5.02c0.25,1.35,0.43,5.91-7.83,8
		c-0.47,0.12-0.94,0.23-1.41,0.34c-0.21,1.64-0.37,3.13-0.58,4.97c-0.33,2.97-0.74,6.67-1.57,13.18c-0.44,3.44-1.3,8.04-3.01,11.99
		c10.89,7.05,19.86,11.58,29.29,2.78c0.86-0.81,2.3-0.71,3.22,0.21c0.91,0.92,0.95,2.33,0.09,3.14
		C94.23,118.76,89.62,120.43,85.04,120.43z M53.39,106.18c-0.81,0-1.51,0.24-2.09,0.73c-1.06,0.9-1.4,2.52-0.79,3.67
		c0.75,1.4,2.85,2,5.78,1.64c1.45-0.18,2.78-1.11,3.96-2.71c-0.96-0.64-1.94-1.28-2.92-1.91C55.86,106.66,54.52,106.18,53.39,106.18
		z M74.79,69.26c-0.97,0-2.21,1.06-2.73,4.06c3.47-1.04,4.2-2.45,4.08-3.09c-0.09-0.49-0.65-0.93-1.25-0.97
		C74.86,69.26,74.83,69.26,74.79,69.26z"/>
</g>
<path d="M150.14,28.64c-0.88,0.88-0.95,2.23-0.16,3.03l8.62,8.62l-2,2l-8.62-8.62c-0.79-0.79-2.15-0.72-3.03,0.16
	c-0.88,0.88-0.95,2.23-0.16,3.03l8.62,8.62l-2,2l-8.62-8.62c-0.79-0.79-2.15-0.72-3.03,0.16c-0.88,0.88-0.95,2.23-0.16,3.03l9.7,9.7
	l0.01-0.01c3.31,3.25,7.71,4.82,11.94,2.16l0.32,0.43c22.34,30.3,19.08,73.27-7.59,99.93c-23.53,23.53-59.29,29.28-88.99,14.32
	c-1.28-0.64-2.83-0.13-3.47,1.15c-0.64,1.28-0.13,2.83,1.15,3.48c31.69,15.98,69.86,9.84,94.98-15.28
	c13.97-13.97,22.43-32.51,23.83-52.19c1.38-19.49-4.21-38.83-15.73-54.46c-0.06-0.08-0.31-0.4-0.51-0.68l-0.27-0.35c0,0,0,0,0,0
	c2.74-4.26,1.16-8.7-2.11-12.03l0.01-0.01l-9.7-9.7C152.38,27.69,151.02,27.76,150.14,28.64z M161.1,49.52
	c-1.46,1.46-3.57,1.97-5.84,1.65c1.39-0.98,2.76-2.12,4.07-3.42c1.3-1.3,2.44-2.67,3.42-4.07C163.07,45.95,162.55,48.07,161.1,49.52
	z"/>
</svg>
